<svg xmlns="http://www.w3.org/2000/svg" width="64" height="64" viewBox="0 0 64 64" fill="none"><path d="M40 28C40 30.1217 39.1571 32.1566 37.6569 33.6569C36.1566 35.1571 34.1217 36 32 36C29.8783 36 27.8434 35.1571 26.3431 33.6569C24.8429 32.1566 24 30.1217 24 28C24 25.8783 24.8429 23.8434 26.3431 22.3431C27.8434 20.8429 29.8783 20 32 20C34.1217 20 36.1566 20.8429 37.6569 22.3431C39.1571 23.8434 40 25.8783 40 28Z" stroke="#002E53" stroke-linecap="round" stroke-linejoin="round"></path><path d="M52 28C52 47.046 32 58 32 58C32 58 12 47.046 12 28C12 16.954 20.954 8 32 8C43.046 8 52 16.954 52 28Z" stroke="#002E53" stroke-linecap="round" stroke-linejoin="round"></path></svg>