<svg xmlns="http://www.w3.org/2000/svg" viewBox="-61 0 488 488"><path d="M321.742 67H274V36.984a5.673 5.673 0 0 0-1.543-4.195A5.672 5.672 0 0 0 268.359 31h-40.968c-6.196-18-24.223-31-44.645-31h-.144c-20 0-37.625 13-44.391 31H97.64a5.672 5.672 0 0 0-4.098 1.79A5.673 5.673 0 0 0 92 36.983V67H44.258C20.028 67 0 86.043 0 109.285v336.567C0 469.094 20.027 488 44.258 488h277.484c24.23 0 44.258-18.906 44.258-42.148V109.285C366 86.043 345.973 67 321.742 67zM104 43h38.621a6.009 6.009 0 0 0 5.813-4.512c4.007-15.597 18.078-26.5 34.183-26.488h.113c16.551 0 30.954 11.047 34.243 26.262A6.003 6.003 0 0 0 222.836 43H262v58H104zm250 402.852C354 462.477 339.355 476 321.742 476H44.258C26.645 476 12 462.477 12 445.852V109.285C12 92.66 26.645 79 44.258 79H92v27.7c0 3.316 2.324 6.3 5.64 6.3h170.72c3.316 0 5.64-2.984 5.64-6.3V79h47.742C339.355 79 354 92.66 354 109.285zm0 0"></path><path d="M256.742 415c3.317 0 6-2.688 6-6s-2.683-6-6-6H109.258c-3.317 0-6 2.688-6 6s2.683 6 6 6zm0 0M286.742 429H79.258c-3.317 0-6 2.688-6 6s2.683 6 6 6h207.484c3.317 0 6-2.688 6-6s-2.683-6-6-6zm0 0M297.672 231.285l-20.457-1.93a98.036 98.036 0 0 0-9.977-24.636l12.989-15.781a6.001 6.001 0 0 0-.387-8.051l-23.73-23.735a5.998 5.998 0 0 0-8.055-.386l-15.989 13.172a96.34 96.34 0 0 0-24.64-10.04L205.5 139.43a5.903 5.903 0 0 0-5.938-5.328L166.302 134h-.04a5.906 5.906 0 0 0-5.972 5.328l-1.93 20.457a98.085 98.085 0 0 0-24.632 9.973l-15.993-13.192a5.998 5.998 0 0 0-8.054.383l-23.735 23.73a5.998 5.998 0 0 0-.386 8.055L98.73 204.72a96.293 96.293 0 0 0-10.043 24.644l-20.355 1.922A5.904 5.904 0 0 0 63 237.258v33.484a5.906 5.906 0 0 0 5.328 5.973l20.457 1.93a98.144 98.144 0 0 0 9.973 24.632L85.566 319.27a5.998 5.998 0 0 0 .383 8.054l23.73 23.735a5.998 5.998 0 0 0 8.055.386l15.985-13.172a96.293 96.293 0 0 0 24.644 10.043l1.922 20.356a5.906 5.906 0 0 0 5.973 5.328h33.484a5.906 5.906 0 0 0 5.973-5.328l1.93-20.457a98.144 98.144 0 0 0 24.632-9.973l15.993 13.192a6.002 6.002 0 0 0 8.054-.38l23.735-23.73a5.995 5.995 0 0 0 .386-8.058l-13.172-15.985a96.293 96.293 0 0 0 10.043-24.644l20.356-1.922a5.906 5.906 0 0 0 5.328-5.973v-33.484a5.906 5.906 0 0 0-5.328-5.973zM291 265.277l-19.246 1.82a5.948 5.948 0 0 0-5.266 4.801 83.719 83.719 0 0 1-11.636 28.653 6.002 6.002 0 0 0 .43 7.066l12.433 15.078-16.024 16.028-15.078-12.43a5.995 5.995 0 0 0-7.066-.41 86.483 86.483 0 0 1-28.738 11.68 5.882 5.882 0 0 0-4.711 5.19L194.278 362h-22.555l-1.82-19.246a5.948 5.948 0 0 0-4.801-5.266 83.719 83.719 0 0 1-28.653-11.636 6.002 6.002 0 0 0-7.066.43l-15.078 12.433-16.028-16.024 12.43-15.078a6 6 0 0 0 .41-7.066 86.483 86.483 0 0 1-11.68-28.738 5.882 5.882 0 0 0-5.19-4.711L75 265.278v-22.555l19.246-1.82a5.948 5.948 0 0 0 5.266-4.801 83.719 83.719 0 0 1 11.636-28.653 6.002 6.002 0 0 0-.43-7.066l-12.433-15.078 16.024-16.028 15.078 12.426a6.001 6.001 0 0 0 7.066.414 86.409 86.409 0 0 1 28.738-11.683 5.999 5.999 0 0 0 4.711-5.297l1.817-19.32 22.344.14 1.824 19.39a5.995 5.995 0 0 0 4.8 5.321 83.852 83.852 0 0 1 28.653 11.664 6.001 6.001 0 0 0 7.066-.414l15.078-12.426 16.032 16.031-12.223 14.868a6.001 6.001 0 0 0-.41 7.058 86.429 86.429 0 0 1 11.683 28.742 5.874 5.874 0 0 0 5.192 4.711l19.242 1.82zm0 0"></path><path d="M129.688 200.688c-29.442 29.445-29.446 77.18 0 106.625s77.18 29.445 106.625 0 29.44-77.18 0-106.625c-29.461-29.399-77.165-29.399-106.625 0zm98.14 98.14c-24.754 24.727-64.863 24.715-89.598-.027-24.738-24.746-24.738-64.856 0-89.602 24.735-24.742 64.844-24.754 89.598-.027 24.719 24.773 24.719 64.883 0 89.656zm0 0"></path><path d="M183 224.453c6.387.008 11.559 5.18 11.566 11.567 0 3.312 2.688 6 6 6s6-2.688 6-6A23.6 23.6 0 0 0 189 213.23V209c0-3.313-2.688-6-6-6s-6 2.688-6 6v4.23c-11.457 3.016-18.89 14.067-17.371 25.813 1.52 11.75 11.527 20.543 23.371 20.543 6.39 0 11.57 5.18 11.57 11.566 0 6.391-5.18 11.57-11.57 11.57-6.387 0-11.566-5.179-11.566-11.57 0-3.312-2.688-6-6-6s-6 2.688-6 6A23.608 23.608 0 0 0 177 293.945V299c0 3.312 2.688 6 6 6s6-2.688 6-6v-5.055c11.457-3.015 18.895-14.066 17.375-25.816S194.848 247.586 183 247.586c-6.387 0-11.566-5.18-11.566-11.566 0-6.391 5.18-11.567 11.566-11.567zm0 0"></path></svg>