<svg xmlns="http://www.w3.org/2000/svg" width="800" height="800" viewBox="0 0 800 800" fill="none"><g clip-path="url(#clip0_2623_28)"><path d="M399.999 799.999C179.448 799.999 0 620.567 0 400.002C0 179.435 179.448 0.000976562 399.999 0.000976562C620.552 0.000976562 800 179.435 800 400.002C800 620.567 620.552 799.999 399.999 799.999ZM399.999 25.8064C193.662 25.8064 25.8054 193.676 25.8054 400.002C25.8054 606.328 193.662 774.196 399.999 774.196C606.338 774.196 774.195 606.328 774.195 400.002C774.195 193.676 606.338 25.8064 399.999 25.8064Z" fill="#1F4D4C"></path><path d="M326.054 570.617L183.058 427.621L201.304 409.377L326.054 534.124L597.581 262.608L615.828 280.852L326.054 570.617Z" fill="#1F4D4C"></path></g><defs><clipPath id="clip0_2623_28"><rect width="800" height="800" fill="white"></rect></clipPath></defs></svg>