<svg id="Capa_1" enable-background="new 0 0 512 512" height="512" viewBox="0 0 512 512" width="512" xmlns="http://www.w3.org/2000/svg"><g><path d="m256.396 204.495c-25.57 0-50.014 11.003-67.063 30.189l22.425 19.928c11.361-12.785 27.631-20.117 44.638-20.117s33.277 7.333 44.638 20.117l22.425-19.928c-17.05-19.185-41.493-30.189-67.063-30.189z"/><path d="m343.285 217.108 22.425-19.928c-27.785-31.267-67.629-49.2-109.314-49.2-41.686 0-81.529 17.933-109.314 49.2l22.425 19.928c22.097-24.866 53.768-39.127 86.89-39.127s64.791 14.261 86.888 39.127z"/><path d="m467.66 254.318 23.151 23.151 21.19-21.19-61.091-61.091v-155.518h-104.63v50.887l-90.558-90.557-255.488 255.488 21.19 21.19 22.359-22.359v227.714h-43.783v29.967h511.443v-29.967h-43.783zm-91.414-184.68h44.695v95.583l-44.695-44.696zm-302.495 154.713 181.971-181.97 181.971 181.97v257.682h-166.693v-43.486c30.489-6.858 53.341-34.133 53.341-66.662v-48.745h-23.339v-38.079h-30v38.079h-30.004v-38.079h-30v38.079h-23.339v48.745c0 32.529 22.852 59.804 53.341 66.662v43.486h-167.249zm143.908 128.789h76.682v18.745c0 21.141-17.2 38.341-38.341 38.341s-38.341-17.2-38.341-38.341z"/></g></svg>