<svg xmlns="http://www.w3.org/2000/svg" width="64" height="64" viewBox="0 0 64 64" fill="none"><path d="M12 12.5H52V11.5H12V12.5ZM57.5 18V46H58.5V18H57.5ZM52 51.5H12V52.5H52V51.5ZM6.5 46V18H5.5V46H6.5ZM12 51.5C10.5413 51.5 9.14236 50.9205 8.11091 49.8891C7.07946 48.8576 6.5 47.4587 6.5 46H5.5C5.5 47.7239 6.18482 49.3772 7.40381 50.5962C8.62279 51.8152 10.2761 52.5 12 52.5V51.5ZM57.5 46C57.5 47.4587 56.9205 48.8576 55.8891 49.8891C54.8576 50.9205 53.4587 51.5 52 51.5V52.5C53.7239 52.5 55.3772 51.8152 56.5962 50.5962C57.8152 49.3772 58.5 47.7239 58.5 46H57.5ZM52 12.5C53.4587 12.5 54.8576 13.0795 55.8891 14.1109C56.9205 15.1424 57.5 16.5413 57.5 18H58.5C58.5 16.2761 57.8152 14.6228 56.5962 13.4038C55.3772 12.1848 53.7239 11.5 52 11.5V12.5ZM12 11.5C10.2761 11.5 8.62279 12.1848 7.40381 13.4038C6.18482 14.6228 5.5 16.2761 5.5 18H6.5C6.5 16.5413 7.07946 15.1424 8.11091 14.1109C9.14236 13.0795 10.5413 12.5 12 12.5V11.5ZM8.593 24.183L28.593 36.491L29.117 35.639L9.117 23.331L8.593 24.183ZM35.407 36.491L55.407 24.183L54.882 23.331L34.883 35.639L35.407 36.491ZM58.5 18.647V18H57.5V18.647H58.5ZM6.5 18.647V18H5.5V18.647H6.5ZM55.407 24.183C56.3524 23.6011 57.133 22.7869 57.6744 21.8178C58.2159 20.8487 58.5001 19.7571 58.5 18.647H57.5C57.5 19.5862 57.2595 20.5098 56.8014 21.3298C56.3433 22.1497 55.6819 22.8387 54.882 23.331L55.407 24.183ZM28.593 36.491C29.6175 37.1216 30.797 37.4554 32 37.4554C33.203 37.4554 34.3825 37.1216 35.407 36.491L34.883 35.639C34.0161 36.1726 33.018 36.4552 32 36.4552C30.982 36.4552 29.9839 36.1726 29.117 35.639L28.593 36.491ZM9.117 23.331C8.31729 22.8388 7.65692 22.149 7.19882 21.3292C6.74072 20.5095 6.50014 19.5861 6.5 18.647H5.5C5.49992 19.7571 5.78415 20.8487 6.32558 21.8178C6.86702 22.7869 7.64763 23.6011 8.593 24.183L9.117 23.331Z" fill="#002E53"></path></svg>