<svg xmlns="http://www.w3.org/2000/svg" width="64" height="64" viewBox="0 0 64 64" fill="none"><path d="M46 57.5C24.185 57.5 6.5 39.815 6.5 18H5.5C5.5 40.367 23.633 58.5 46 58.5V57.5ZM12 6.5H15.658V5.5H12V6.5ZM18.083 8.394L21.032 20.189L22.002 19.946L19.053 8.151L18.083 8.394ZM21.032 20.189C21.1513 20.6662 21.1272 21.168 20.9626 21.6315C20.7981 22.0951 20.5005 22.4998 20.107 22.795L20.707 23.595C21.2579 23.1817 21.6747 22.615 21.905 21.9659C22.1354 21.3168 22.1691 20.6142 22.002 19.946L21.032 20.189ZM15.658 6.5C16.2155 6.5001 16.757 6.68655 17.1964 7.02973C17.6358 7.37291 17.9479 7.85311 18.083 8.394L19.053 8.151C18.8637 7.39386 18.4267 6.72171 17.8116 6.24138C17.1965 5.76106 16.4385 5.5001 15.658 5.5V6.5ZM12 5.5C10.2761 5.5 8.62279 6.18482 7.40381 7.40381C6.18482 8.62279 5.5 10.2761 5.5 12H6.5C6.5 10.5413 7.07946 9.14236 8.11091 8.11091C9.14236 7.07946 10.5413 6.5 12 6.5V5.5ZM58.5 52V48.342H57.5V52H58.5ZM55.849 44.947L44.054 41.998L43.812 42.968L55.607 45.917L55.849 44.947ZM44.054 41.998C43.3856 41.8308 42.6827 41.8645 42.0334 42.0951C41.3841 42.3256 40.8173 42.7427 40.404 43.294L41.204 43.894C41.4992 43.5002 41.904 43.2022 42.3677 43.0375C42.8315 42.8728 43.3346 42.8486 43.812 42.968L44.054 41.998ZM58.5 48.342C58.4999 47.5615 58.2389 46.8035 57.7586 46.1884C57.2783 45.5733 56.6061 45.1363 55.849 44.947L55.607 45.917C56.1479 46.0521 56.6271 46.3642 56.9703 46.8036C57.3134 47.243 57.4999 47.7845 57.5 48.342H58.5ZM57.5 52C57.5 53.4587 56.9205 54.8576 55.8891 55.8891C54.8576 56.9205 53.4587 57.5 52 57.5V58.5C53.7239 58.5 55.3772 57.8152 56.5962 56.5962C57.8152 55.3772 58.5 53.7239 58.5 52H57.5ZM20.107 22.795L16.656 25.382L17.256 26.182L20.706 23.595L20.107 22.795ZM35.165 47.587C30.8672 46.007 26.9642 43.5116 23.7263 40.2737C20.4884 37.0358 17.993 33.1328 16.413 28.835L15.473 29.179C17.1031 33.6134 19.6778 37.6404 23.0186 40.981C26.3594 44.3217 30.3865 46.8971 34.821 48.527L35.165 47.587ZM40.405 43.293L37.818 46.743L38.618 47.343L41.205 43.893L40.405 43.293ZM46 58.5H52V57.5H46V58.5ZM6.5 18V12H5.5V18H6.5ZM34.82 48.526C36.221 49.039 37.746 48.506 38.618 47.343L37.818 46.743C37.188 47.583 36.115 47.935 35.165 47.587L34.821 48.527L34.82 48.526ZM16.658 25.382C15.496 26.254 14.962 27.779 15.475 29.179L16.413 28.835C16.065 27.885 16.417 26.813 17.258 26.182L16.658 25.382Z" fill="#002E53"></path></svg>