<svg xmlns="http://www.w3.org/2000/svg" height="472pt" viewBox="-72 0 472 472" width="472pt"><path d="m211.425781 0h-94.617187c-12.789063.015625-23.148438 10.375-23.164063 23.160156v8.273438h-47.796875c-25.308594.027344-45.8203122 20.539062-45.847656 45.847656v348.871094c.0273438 25.308594 20.539062 45.820312 45.847656 45.847656h236.539063c25.308593-.027344 45.820312-20.539062 45.847656-45.847656v-348.871094c-.027344-25.308594-20.539063-45.820312-45.847656-45.847656h-47.800781v-8.273438c-.015626-12.785156-10.375-23.144531-23.160157-23.160156zm-105.78125 23.160156c.007813-6.160156 5-11.152344 11.164063-11.160156h94.617187c6.164063.007812 11.15625 5 11.164063 11.160156v26.855469c-.007813 6.160156-5 11.152344-11.164063 11.160156h-94.617187c-6.164063-.007812-11.15625-5-11.164063-11.160156zm176.742188 20.273438c18.683593.019531 33.828125 15.160156 33.847656 33.847656v348.871094c-.019531 18.683594-15.164063 33.824218-33.847656 33.847656h-236.539063c-18.683594-.023438-33.828125-15.164062-33.847656-33.847656v-348.871094c.019531-18.6875 15.164062-33.828125 33.847656-33.847656h47.800782v6.582031c.015624 12.785156 10.375 23.144531 23.160156 23.160156h94.617187c12.785157-.015625 23.148438-10.375 23.164063-23.160156v-6.582031zm0 0"></path><path d="m160.585938 138.367188-110 80.085937c-2.097657 1.527344-2.972657 4.234375-2.171876 6.703125.804688 2.46875 3.105469 4.140625 5.703126 4.144531h26.21875v99.480469c0 3.3125 2.6875 6 6 6h155.5625c3.3125 0 6-2.6875 6-6v-99.480469h26.21875c2.597656 0 4.898437-1.671875 5.703124-4.144531.804688-2.46875-.074218-5.175781-2.171874-6.707031l-110-80.082031c-2.105469-1.53125-4.957032-1.53125-7.0625 0zm81.3125 78.933593c-3.3125 0-6 2.683594-6 6v99.480469h-143.5625v-99.480469c0-3.316406-2.6875-6-6-6h-13.78125l91.5625-66.660156 91.5625 66.660156zm0 0"></path><path d="m138.378906 249.242188c-2.335937-2.328126-6.113281-2.332032-8.457031-.011719-2.34375 2.320312-2.375 6.097656-.066406 8.457031l21.546875 21.757812c1.125 1.136719 2.652344 1.777344 4.25 1.78125h.011718c1.59375 0 3.121094-.632812 4.246094-1.757812l38.449219-38.453125c2.34375-2.34375 2.34375-6.140625 0-8.484375s-6.140625-2.34375-8.484375 0l-34.1875 34.1875zm0 0"></path></svg>