<svg xmlns="http://www.w3.org/2000/svg" xmlns:xlink="http://www.w3.org/1999/xlink" version="1.1" x="0px" y="0px" viewBox="0 0 100 125" enable-background="new 0 0 100 100" xml:space="preserve"><g><path d="M50,5C25.2,5,5,25.1,5,50s20.2,45,45,45s45-20.1,45-45S74.8,5,50,5z M50,26.5c7.2,0,13.1,5.9,13.1,13.1   c0,7.2-5.9,13.1-13.1,13.1s-13.1-5.9-13.1-13.1C36.9,32.4,42.8,26.5,50,26.5z M50,87.9c-12.2,0-23.1-5.8-30.1-14.8   c5.7-10.7,17.1-18,30.1-18s24.4,7.3,30.1,18C73.2,82.1,62.2,87.9,50,87.9z"/></g></svg>          
