<svg xmlns="http://www.w3.org/2000/svg" id="Layer_1" height="512" viewBox="0 0 512 512" width="512" data-name="Layer 1"><path d="m494 137.071h-232v-24.324a35.292 35.292 0 1 0 -12 0v24.324h-232a8.009 8.009 0 0 0 -8 8v315.929a8.009 8.009 0 0 0 8 8h476a8.009 8.009 0 0 0 8-8v-315.929a8.009 8.009 0 0 0 -8-8zm-261.292-58.938a23.293 23.293 0 1 1 23.292 23.133 23.239 23.239 0 0 1 -23.292-23.133zm257.292 378.867h-468v-307.929h468z"></path><path d="m64.133 380.541h-.006a6 6 0 0 0 -.006 12h3.775v29.038a8.216 8.216 0 0 0 8.212 8.2h371.765a6 6 0 0 0 0-12h-11.313v-218.607a7.429 7.429 0 0 0 -7.421-7.421h-51.377a7.428 7.428 0 0 0 -7.42 7.421v218.611h-24.712v-168.966a7.429 7.429 0 0 0 -7.421-7.421h-51.376a7.429 7.429 0 0 0 -7.421 7.421v168.966h-24.712v-127.555a7.429 7.429 0 0 0 -7.421-7.421h-51.379a7.429 7.429 0 0 0 -7.42 7.421v127.555h-24.709v-79.52a7.428 7.428 0 0 0 -7.42-7.42h-51.377a7.428 7.428 0 0 0 -7.421 7.42v79.52h-17.653v-238.164a6 6 0 0 0 -12 0v19.746h-3.763-.006a6 6 0 0 0 -.006 12h3.775v24.235h-3.763-.006a6 6 0 0 0 -.006 12h3.775v24.236h-3.763-.006a6 6 0 0 0 -.006 12h3.775v24.236h-3.763-.006a6 6 0 0 0 -.006 12h3.775v24.236h-3.762-.007a6 6 0 0 0 -.007 12h3.776v24.236zm318.209-176.79h42.218v214.032h-42.218zm-90.93 49.649h42.218v164.383h-42.218zm-90.929 41.411h42.217v122.972h-42.217zm-90.93 48.036h42.218v74.94h-42.218z"></path></svg>