<?xml version="1.0" encoding="UTF-8"?>
<svg xmlns="http://www.w3.org/2000/svg" id="Calque_1" data-name="Calque 1" viewBox="0 0 1685.34 1072.85">
  <defs>
    <style>
      .cls-1 {
        fill: #121f32;
      }
    </style>
  </defs>
  <g>
    <path class="cls-1" d="M833.09,1.31l-224.92,106.49c-5.67,2.68-5.66,11.25,0,13.92l224.93,106.27c3.69,1.75,7.91,1.75,11.6,0l224.93-106.27c5.67-2.68,5.67-11.24,0-13.92L844.71,1.31c-3.7-1.75-7.92-1.75-11.62,0Z"></path>
    <g>
      <path class="cls-1" d="M600.65,459.16l215.51,102.1c6.31,2.99,13.41-1.93,13.41-9.28V252.06c0-4.02-2.22-7.65-5.67-9.28l-215.51-101.89c-6.31-2.98-13.41,1.94-13.41,9.28v299.71c0,4.01,2.22,7.65,5.66,9.28h.01Z"></path>
      <path class="cls-1" d="M848.23,252.06v299.93c0,7.35,7.11,12.27,13.41,9.28l215.51-102.1c3.44-1.63,5.66-5.27,5.66-9.28V150.17c0-7.35-7.1-12.26-13.41-9.28l-215.51,101.89c-3.45,1.63-5.67,5.27-5.67,9.28h.01Z"></path>
    </g>
  </g>
  <g>
    <path class="cls-1" d="M120.06,900.23c0,.4-.33.62-.99.69-.66.06-1.12.03-1.38-.1l-95.15-110.78c-4.75-5.41-8.8-9.07-12.16-10.98s-6.63-2.87-9.79-2.87c-.4,0-.59-.39-.59-1.19s.2-1.19.59-1.19c2.51,0,5.08.07,7.72.2s5.08.2,7.32.2c3.96,0,7.55-.06,10.78-.2,3.23-.13,5.7-.2,7.42-.2s2.97.76,3.76,2.27c.79,1.52,2.77,4.19,5.93,8.01l74.97,88.22,1.58,27.89v.03ZM19.57,873.53v-95.15l5.34.4v94.75c0,6.99,1.38,12.33,4.15,16.02s6.73,5.54,11.87,5.54c.4,0,.6.39.6,1.19s-.2,1.19-.6,1.19c-2.77,0-5.64-.06-8.6-.2-2.97-.13-6.23-.2-9.79-.2-3.83,0-7.48.07-10.98.2-3.49.13-6.76.2-9.79.2-.4,0-.59-.4-.59-1.19s.2-1.19.59-1.19c5.8,0,10.22-1.85,13.25-5.54s4.55-9.03,4.55-16.02ZM120.06,797.96v102.27l-5.34-5.93v-96.34c0-6.99-1.36-12.36-4.06-16.12s-6.7-5.64-11.97-5.64c-.27,0-.4-.39-.4-1.19s.13-1.19.4-1.19c2.77,0,5.67.1,8.7.3s6.33.3,9.89.3,6.79-.1,10.09-.3c3.29-.2,6.33-.3,9.1-.3.4,0,.59.4.59,1.19s-.2,1.19-.59,1.19c-5.28,0-9.33,1.88-12.17,5.64s-4.25,9.13-4.25,16.12h.01Z"></path>
    <path class="cls-1" d="M159.23,897.47c-.53,0-1.16-.62-1.88-1.88-.72-1.25-.82-2.14-.3-2.67,7.65-9.63,14.54-18.33,20.67-26.11,6.13-7.78,11.34-15,15.63-21.66,4.28-6.66,7.55-13.02,9.79-19.09,2.24-6.06,3.36-12.2,3.36-18.4,0-8.97-1.98-15.36-5.93-19.19-3.96-3.82-9.1-5.74-15.43-5.74s-11.6,1.68-15.82,5.04-7.12,8.01-8.7,13.95c-.13.27-.56.33-1.29.2s-1.02-.4-.89-.79c1.58-9.1,5.57-16.29,11.97-21.56s14.34-7.91,23.84-7.91c10.02,0,17.67,2.84,22.95,8.51,5.27,5.67,7.91,12.92,7.91,21.76,0,6.33-1.25,12.46-3.76,18.4-2.51,5.93-5.77,11.64-9.79,17.11-4.02,5.47-8.34,10.72-12.96,15.73-4.62,5.01-9.07,9.79-13.35,14.34s-7.88,8.74-10.78,12.56c-.53.92-.2,1.38.99,1.38,10.55,0,19.15-.13,25.81-.4,6.66-.26,11.8-.86,15.43-1.78,3.63-.92,6.1-2.31,7.42-4.16,1.32-1.85,2.04-4.35,2.18-7.52,0-.4.36-.59,1.09-.59s1.09.2,1.09.59v27.69c0,.53-.13,1.02-.4,1.48-.27.46-.73.69-1.38.69h-67.45l-.02.02Z"></path>
    <path class="cls-1" d="M301.06,900.04c-8.57,0-15.96-2.6-22.16-7.81s-11.01-12.66-14.44-22.35-5.14-21.13-5.14-34.32,1.71-24.56,5.14-34.12c3.43-9.56,8.27-16.94,14.54-22.16,6.26-5.21,13.75-7.81,22.45-7.81s15.73,2.64,21.86,7.91c6.13,5.28,10.85,12.73,14.14,22.35,3.29,9.63,4.95,21.1,4.95,34.42s-1.68,24.4-5.04,34.02c-3.36,9.63-8.11,17.01-14.24,22.16-6.13,5.14-13.49,7.71-22.06,7.71h0ZM303.43,896.28c4.48,0,8.11-2.08,10.88-6.23,2.77-4.16,4.78-10.52,6.03-19.09s1.88-19.38,1.88-32.44c0-14.9-.89-27.03-2.67-36.4-1.78-9.36-4.35-16.22-7.72-20.57-3.36-4.35-7.55-6.53-12.56-6.53-4.49,0-8.21,2.18-11.18,6.53-2.97,4.35-5.18,10.88-6.63,19.58s-2.18,19.72-2.18,33.04c0,13.98.89,25.59,2.67,34.81,1.78,9.23,4.45,16.09,8.01,20.57,3.56,4.49,8.04,6.73,13.45,6.73h.02Z"></path>
    <path class="cls-1" d="M463.46,881.44c0,3.83.36,6.73,1.09,8.7s2.14,3.3,4.25,3.96c2.11.66,5.34.99,9.69.99.4,0,.59.39.59,1.19s-.2,1.19-.59,1.19c-3.3,0-6.99-.06-11.08-.2-4.09-.13-8.64-.2-13.65-.2-4.62,0-9.03.07-13.25.2s-7.98.2-11.28.2c-.4,0-.59-.4-.59-1.19s.2-1.19.59-1.19c4.22,0,7.45-.33,9.69-.99s3.72-1.98,4.45-3.96c.72-1.98,1.09-4.88,1.09-8.7v-91.59c0-3.82-.36-6.69-1.09-8.61-.73-1.91-2.21-3.23-4.45-3.96-2.24-.72-5.47-1.09-9.69-1.09-.4,0-.59-.39-.59-1.19s.2-1.19.59-1.19c3.29,0,7.05.1,11.28.3,4.22.2,8.64.3,13.25.3,5.01,0,9.59-.1,13.75-.3s7.81-.3,10.98-.3c.4,0,.59.4.59,1.19s-.2,1.19-.59,1.19c-4.22,0-7.42.4-9.59,1.19-2.18.79-3.63,2.18-4.35,4.15-.72,1.98-1.09,4.88-1.09,8.7v91.21Z"></path>
    <path class="cls-1" d="M522.8,873.53l1.98-95.15,5.34.4-2.18,94.75c-.13,6.99,1.22,12.33,4.06,16.02,2.83,3.69,7.09,5.54,12.76,5.54.4,0,.59.39.59,1.19s-.2,1.19-.59,1.19c-2.9,0-5.87-.06-8.9-.2-3.04-.13-6.46-.2-10.29-.2s-7.55.07-10.78.2c-3.23.13-6.3.2-9.2.2-.4,0-.59-.4-.59-1.19s.2-1.19.59-1.19c5.41,0,9.59-1.85,12.56-5.54s4.51-9.03,4.65-16.02ZM662.85,895.09c.26,0,.39.39.39,1.19s-.13,1.19-.39,1.19c-3.43,0-7.25-.06-11.47-.2-4.22-.13-8.64-.2-13.25-.2s-8.94.07-12.96.2-7.68.2-10.98.2c-.26,0-.4-.4-.4-1.19s.13-1.19.4-1.19c6.33,0,10.42-.86,12.26-2.57,1.85-1.71,2.57-5.41,2.18-11.08l-4.15-90.4,8.7-13.65-50.64,118.69c-.13.53-.66.79-1.58.79s-1.52-.26-1.78-.79l-53.61-105.83c-4.75-9.36-10.95-14.05-18.6-14.05-.4,0-.59-.39-.59-1.19s.2-1.19.59-1.19c2.5,0,5.17.07,8.01.2,2.83.13,5.24.2,7.22.2,2.9,0,5.5-.06,7.81-.2,2.31-.13,4.12-.2,5.44-.2,1.85,0,3.27.63,4.25,1.88.99,1.26,2.6,4.06,4.85,8.41l44.51,87.24-8.5,15.03,46.88-107.61c.79-1.71,1.65-2.97,2.57-3.76.92-.79,2.04-1.19,3.36-1.19,1.19,0,2.47.07,3.86.2,1.38.13,3.06.2,5.04.2,3.95,0,7.32-.06,10.09-.2,2.77-.13,5.47-.2,8.11-.2.4,0,.6.4.6,1.19s-.2,1.19-.6,1.19c-6.07,0-10.55,1.12-13.45,3.36s-4.22,6.07-3.96,11.47l4.35,90.4c.26,3.83.76,6.73,1.48,8.7.72,1.98,2.18,3.3,4.35,3.96,2.17.66,5.37.99,9.59.99h.02Z"></path>
    <path class="cls-1" d="M702.81,873.53l1.98-95.15,5.34.4-2.18,94.75c-.13,6.99,1.22,12.33,4.06,16.02,2.83,3.69,7.09,5.54,12.76,5.54.4,0,.59.39.59,1.19s-.2,1.19-.59,1.19c-2.9,0-5.87-.06-8.9-.2-3.04-.13-6.46-.2-10.29-.2s-7.55.07-10.78.2c-3.23.13-6.3.2-9.2.2-.4,0-.6-.4-.6-1.19s.2-1.19.6-1.19c5.4,0,9.59-1.85,12.56-5.54s4.52-9.03,4.65-16.02ZM842.86,895.09c.26,0,.4.39.4,1.19s-.13,1.19-.4,1.19c-3.43,0-7.25-.06-11.47-.2-4.22-.13-8.64-.2-13.25-.2s-8.94.07-12.96.2-7.68.2-10.98.2c-.27,0-.4-.4-.4-1.19s.13-1.19.4-1.19c6.33,0,10.41-.86,12.26-2.57,1.85-1.71,2.57-5.41,2.17-11.08l-4.15-90.4,8.7-13.65-50.64,118.69c-.13.53-.66.79-1.58.79s-1.52-.26-1.78-.79l-53.61-105.83c-4.75-9.36-10.95-14.05-18.59-14.05-.4,0-.6-.39-.6-1.19s.2-1.19.6-1.19c2.5,0,5.17.07,8.01.2,2.83.13,5.24.2,7.22.2,2.9,0,5.5-.06,7.81-.2,2.31-.13,4.12-.2,5.44-.2,1.85,0,3.26.63,4.25,1.88.99,1.26,2.6,4.06,4.85,8.41l44.51,87.24-8.51,15.03,46.88-107.61c.79-1.71,1.65-2.97,2.57-3.76.92-.79,2.04-1.19,3.36-1.19,1.19,0,2.47.07,3.86.2,1.38.13,3.07.2,5.04.2,3.96,0,7.32-.06,10.09-.2,2.77-.13,5.47-.2,8.11-.2.4,0,.59.4.59,1.19s-.2,1.19-.59,1.19c-6.07,0-10.55,1.12-13.45,3.36s-4.22,6.07-3.96,11.47l4.35,90.4c.26,3.83.76,6.73,1.49,8.7.72,1.98,2.17,3.3,4.35,3.96,2.18.66,5.37.99,9.59.99h.02Z"></path>
    <path class="cls-1" d="M931.88,899.84c-9.5,0-18.1-1.68-25.82-5.04-7.71-3.36-14.31-8.01-19.78-13.95-5.47-5.93-9.69-12.76-12.66-20.47-2.97-7.72-4.45-15.92-4.45-24.63,0-10.68,2.08-20.04,6.23-28.09,4.15-8.04,9.66-14.74,16.52-20.08,6.85-5.34,14.37-9.33,22.55-11.97,8.18-2.64,16.28-3.96,24.33-3.96,9.76,0,18.49,1.75,26.21,5.24,7.72,3.5,14.27,8.21,19.68,14.14s9.53,12.66,12.36,20.18c2.83,7.52,4.25,15.23,4.25,23.14,0,9.23-1.85,17.8-5.54,25.72-3.69,7.91-8.74,14.84-15.13,20.77-6.4,5.93-13.78,10.58-22.15,13.95-8.38,3.36-17.24,5.04-26.61,5.04h.01ZM938.6,895.09c7.91,0,15-2.11,21.26-6.33,6.26-4.22,11.21-10.45,14.83-18.69,3.63-8.24,5.44-18.23,5.44-29.97s-1.98-23.14-5.93-32.64-9.63-16.98-17.01-22.45c-7.39-5.47-16.22-8.21-26.51-8.21-12.79,0-22.72,4.58-29.77,13.75-7.06,9.17-10.58,21.86-10.58,38.08,0,9.5,1.19,18.3,3.56,26.41s5.7,15.2,9.99,21.26c4.28,6.07,9.36,10.72,15.23,13.94,5.87,3.23,12.36,4.85,19.49,4.85h0Z"></path>
    <path class="cls-1" d="M1083,830.8l2.18-3.17c8.57,0,16.05,1.45,22.45,4.35,6.4,2.9,11.37,6.89,14.93,11.97,3.56,5.08,5.34,10.91,5.34,17.51s-1.88,13.09-5.64,18.69c-3.76,5.61-8.94,10.02-15.53,13.25-6.6,3.23-14.05,4.85-22.35,4.85-3.83,0-8.44-.2-13.85-.59-5.41-.4-10.35-.59-14.84-.59s-9.03.07-13.25.2-7.98.2-11.28.2c-.4,0-.59-.4-.59-1.19s.2-1.19.59-1.19c4.09,0,7.22-.33,9.39-.99,2.18-.66,3.69-1.98,4.55-3.96.86-1.98,1.29-4.88,1.29-8.7v-91.59c0-3.82-.4-6.69-1.19-8.61-.79-1.91-2.27-3.23-4.45-3.96-2.18-.72-5.31-1.09-9.4-1.09-.26,0-.4-.39-.4-1.19s.13-1.19.4-1.19c3.29,0,7.02.1,11.18.3s8.54.3,13.15.3c3.69,0,7.65-.2,11.87-.59s8.24-.59,12.07-.59c7.91,0,14.54,1.02,19.88,3.07s9.4,4.98,12.17,8.8c2.77,3.83,4.15,8.44,4.15,13.85,0,7.39-2.84,13.95-8.51,19.68-5.67,5.74-13.78,9.79-24.33,12.17h.02ZM1076.27,777.2c-2.64,0-4.78.33-6.43.99s-2.8,1.91-3.46,3.76c-.66,1.85-.99,4.62-.99,8.31v38.77l-7.12-1.38c4.35.13,7.91.23,10.68.3s4.29.1,4.55.1c8.18,0,14.18-2.64,18-7.91,3.82-5.27,5.74-11.74,5.74-19.38,0-4.88-.76-9.1-2.27-12.66-1.52-3.56-3.83-6.26-6.92-8.11-3.1-1.85-7.02-2.77-11.77-2.77v-.02ZM1081.22,893.71c9.36,0,16.15-2.41,20.38-7.22,4.22-4.81,6.33-11.57,6.33-20.28,0-9.76-2.54-17.74-7.62-23.93-5.08-6.2-12.76-9.3-23.04-9.3-1.98,0-4.62.03-7.91.1-3.3.07-6.72.43-10.29,1.09l6.33-2.37v49.65c0,2.77.33,5.08.99,6.92.66,1.85,2.14,3.2,4.45,4.06,2.3.86,5.77,1.29,10.38,1.29h0Z"></path>
    <path class="cls-1" d="M1192.78,881.44c0,3.83.36,6.73,1.09,8.7.72,1.98,2.14,3.3,4.25,3.96,2.11.66,5.34.99,9.69.99.4,0,.6.39.6,1.19s-.2,1.19-.6,1.19c-3.3,0-6.99-.06-11.08-.2-4.09-.13-8.64-.2-13.65-.2-4.62,0-9.03.07-13.25.2s-7.98.2-11.27.2c-.4,0-.6-.4-.6-1.19s.2-1.19.6-1.19c4.22,0,7.45-.33,9.69-.99s3.72-1.98,4.45-3.96c.72-1.98,1.09-4.88,1.09-8.7v-91.59c0-3.82-.36-6.69-1.09-8.61-.73-1.91-2.21-3.23-4.45-3.96-2.24-.72-5.47-1.09-9.69-1.09-.4,0-.6-.39-.6-1.19s.2-1.19.6-1.19c3.29,0,7.05.1,11.27.3s8.64.3,13.25.3c5.01,0,9.59-.1,13.75-.3s7.81-.3,10.98-.3c.4,0,.6.4.6,1.19s-.2,1.19-.6,1.19c-4.22,0-7.42.4-9.59,1.19-2.17.79-3.63,2.18-4.35,4.15-.73,1.98-1.09,4.88-1.09,8.7v91.21Z"></path>
    <path class="cls-1" d="M1268.94,790.05v90.6c0,3.3.33,5.8.99,7.52.66,1.72,1.91,2.84,3.76,3.36,1.85.53,4.55.79,8.11.79h11.87c9.36,0,17.28-2.64,23.74-7.91,6.46-5.27,10.75-12.26,12.86-20.97.13-.39.53-.53,1.19-.39.66.13.99.39.99.79-.4,4.09-.79,9-1.19,14.74-.4,5.74-.6,11.05-.6,15.92,0,1.98-.99,2.97-2.97,2.97h-92.58c-.27,0-.4-.4-.4-1.19s.13-1.19.4-1.19c4.22,0,7.42-.33,9.59-.99,2.17-.66,3.62-1.98,4.35-3.96.72-1.98,1.09-4.88,1.09-8.7v-91.59c0-3.82-.36-6.69-1.09-8.61-.73-1.91-2.18-3.23-4.35-3.96-2.18-.72-5.38-1.09-9.59-1.09-.27,0-.4-.39-.4-1.19s.13-1.19.4-1.19c3.16,0,6.85.1,11.08.3,4.22.2,8.63.3,13.25.3,4.88,0,9.39-.1,13.55-.3s7.81-.3,10.98-.3c.4,0,.6.4.6,1.19s-.2,1.19-.6,1.19c-4.22,0-7.42.36-9.59,1.09-2.17.73-3.63,2.08-4.35,4.06-.73,1.98-1.09,4.88-1.09,8.7h0Z"></path>
    <path class="cls-1" d="M1390.59,881.44c0,3.83.36,6.73,1.09,8.7s2.14,3.3,4.25,3.96c2.11.66,5.34.99,9.69.99.4,0,.59.39.59,1.19s-.2,1.19-.59,1.19c-3.3,0-6.99-.06-11.08-.2-4.09-.13-8.64-.2-13.65-.2-4.62,0-9.03.07-13.25.2s-7.98.2-11.28.2c-.4,0-.59-.4-.59-1.19s.2-1.19.59-1.19c4.22,0,7.45-.33,9.69-.99s3.72-1.98,4.45-3.96c.72-1.98,1.09-4.88,1.09-8.7v-91.59c0-3.82-.36-6.69-1.09-8.61-.73-1.91-2.21-3.23-4.45-3.96-2.24-.72-5.47-1.09-9.69-1.09-.4,0-.59-.39-.59-1.19s.2-1.19.59-1.19c3.29,0,7.05.1,11.28.3,4.22.2,8.64.3,13.25.3,5.01,0,9.59-.1,13.75-.3s7.81-.3,10.98-.3c.4,0,.59.4.59,1.19s-.2,1.19-.59,1.19c-4.22,0-7.42.4-9.59,1.19-2.18.79-3.63,2.18-4.35,4.15-.72,1.98-1.09,4.88-1.09,8.7v91.21Z"></path>
    <path class="cls-1" d="M1520.75,897.47h-85.85c-.4,0-.59-.4-.59-1.19s.2-1.19.59-1.19c4.35,0,7.58-.33,9.69-.99s3.53-1.98,4.25-3.96,1.09-4.88,1.09-8.7v-91.59c0-3.82-.36-6.69-1.09-8.61-.72-1.91-2.15-3.23-4.25-3.96-2.11-.72-5.34-1.09-9.69-1.09-.4,0-.59-.39-.59-1.19s.2-1.19.59-1.19h82.29c1.32,0,1.98.59,1.98,1.78l.4,25.72c0,.27-.33.43-.99.49-.66.07-1.12-.1-1.38-.49-1.45-7.52-4.49-13.12-9.1-16.81-4.62-3.69-10.68-5.54-18.2-5.54h-8.11c-3.3,0-5.9.36-7.81,1.09-1.91.73-3.26,1.91-4.06,3.56-.79,1.65-1.19,3.86-1.19,6.63v90.4c0,2.77.36,5.04,1.09,6.82.72,1.78,1.88,3.04,3.46,3.76,1.58.73,3.82,1.09,6.72,1.09h9.69c8.97,0,16.22-2.14,21.76-6.43,5.54-4.28,9.5-10.65,11.87-19.09.13-.4.56-.53,1.29-.4.72.13,1.09.33,1.09.59-.53,3.69-.99,8.11-1.38,13.25-.4,5.14-.59,9.89-.59,14.24,0,1.98-.99,2.97-2.97,2.97v.03ZM1509.67,852.76c0-5.54-1.85-9.76-5.54-12.66-3.69-2.9-9.23-4.35-16.62-4.35h-27.7v-5.14h27.89c7.38,0,12.86-1.25,16.42-3.76,3.56-2.5,5.34-6.13,5.34-10.88,0-.4.36-.59,1.09-.59s1.09.2,1.09.59c0,4.22-.04,7.52-.1,9.89-.07,2.37-.1,4.82-.1,7.32,0,3.17.1,6.3.3,9.4.2,3.1.3,6.5.3,10.19,0,.27-.39.39-1.19.39s-1.19-.13-1.19-.39h0Z"></path>
    <path class="cls-1" d="M1608.18,773.24c11.47,0,20.34,2.27,26.61,6.82,6.26,4.55,9.4,10.78,9.4,18.69s-2.15,14.24-6.43,20.18c-4.29,5.93-9.83,10.55-16.62,13.85s-14.08,4.95-21.86,4.95c-1.58,0-3.3-.03-5.14-.1-1.85-.06-3.49-.16-4.94-.3v44.11c0,3.83.33,6.73.99,8.7.66,1.98,2.08,3.3,4.25,3.96,2.18.66,5.37.99,9.59.99.4,0,.59.39.59,1.19s-.2,1.19-.59,1.19c-3.3,0-6.99-.06-11.08-.2-4.09-.13-8.57-.2-13.45-.2-4.62,0-9.03.07-13.25.2s-7.98.2-11.28.2c-.4,0-.59-.4-.59-1.19s.2-1.19.59-1.19c4.35,0,7.58-.33,9.69-.99s3.56-1.98,4.35-3.96c.79-1.98,1.19-4.88,1.19-8.7v-91.59c0-3.82-.36-6.69-1.09-8.61-.73-1.91-2.15-3.23-4.25-3.96-2.11-.72-5.34-1.09-9.69-1.09-.26,0-.4-.39-.4-1.19s.13-1.19.4-1.19c3.29,0,7.02.1,11.18.3s8.54.3,13.15.3c4.22,0,8.97-.2,14.24-.59,5.27-.4,10.09-.59,14.44-.59h0ZM1624.6,805.68c0-7.65-.89-13.55-2.67-17.7s-4.25-7.02-7.42-8.61-6.86-2.37-11.08-2.37c-5.14,0-8.8.96-10.98,2.87-2.18,1.91-3.26,5.38-3.26,10.39v41.74c1.85.27,3.82.46,5.93.59,2.11.13,3.95.2,5.54.2,8.83,0,15.03-2.21,18.59-6.63,3.56-4.42,5.34-11.24,5.34-20.47h.01ZM1653.09,897.47c-1.98,0-5.27-2.5-9.89-7.52-4.62-5.01-10.19-12.23-16.72-21.66s-13.82-20.67-21.86-33.73l15.83-4.75c10.68,15.96,19.81,28.72,27.4,38.28,7.58,9.56,14.31,16.45,20.18,20.67,5.86,4.22,11.5,6.33,16.91,6.33.26,0,.4.39.4,1.19s-.13,1.19-.4,1.19h-31.85Z"></path>
  </g>
  <g>
    <path class="cls-1" d="M717.51,1048.07c-5.33.69-5.68,1.2-5.68,6.28v7.23c0,3.01.08,5.85.52,8.17-5.33,1.2-12.3,3.1-19.53,3.1-19.52,0-31.4-12.13-31.4-29.42,0-18.15,14.79-28.99,32-28.99,8.77,0,15.22,1.72,17.89,2.15.17,3.18.6,8.43,1.29,13.85l-2.58.52c-2.06-7.31-4.56-10.41-9.98-12.21-1.98-.69-5.5-1.12-8-1.12-13.16,0-21.67,9.03-21.67,24.77,0,13.68,7.05,27.27,23.74,27.27,2.92,0,5.59-.6,7.31-1.46,1.81-1.03,2.93-1.98,2.93-5.5v-7.05c0-6.28-.69-6.97-8.95-7.57v-2.5h22.11v2.5-.02Z"></path>
    <path class="cls-1" d="M774.88,1057.87c-.52,2.24-2.84,11.1-3.7,13.68h-41.8v-2.41c8-.6,8.6-1.38,8.6-8.43v-33.98c0-7.66-.95-8.09-7.4-8.69v-2.41h26.32c8.09,0,11.44-.09,12.47-.17.08,2.15.43,8.6.77,13.16l-2.58.43c-.78-2.92-1.63-4.73-2.58-6.54-1.38-2.84-3.35-3.44-8.52-3.44h-8.17c-2.67,0-2.84.26-2.84,2.75v19.01h9.55c6.45,0,6.88-1.29,7.91-7.14h2.67v17.72h-2.67c-1.12-6.19-1.8-7.05-8-7.05h-9.46v17.12c0,6.02,1.89,6.54,6.19,6.62h8c5.25,0,6.11-.77,8-3.01,1.63-1.81,3.44-5.33,4.64-7.91l2.58.69h.02Z"></path>
    <path class="cls-1" d="M846.35,1018.05c-5.5.6-7.31,1.46-7.57,5.42-.09,2.75-.26,6.36-.26,14.36v34.49h-3.27l-36.81-44.98v21.5c0,7.74.26,11.61.43,14.11.17,4.39,2.32,5.68,8.52,6.19v2.41h-20.9v-2.41c5.33-.43,7.4-1.72,7.74-5.94.26-2.75.43-6.62.43-14.45v-21.94c0-2.41-.17-3.78-1.72-5.68-1.63-2.15-3.44-2.67-7.66-3.1v-2.41h12.9l36.47,43.26v-21.07c0-8-.17-11.7-.43-14.28-.26-3.87-2.24-5.07-9.12-5.5v-2.41h21.25v2.43Z"></path>
    <path class="cls-1" d="M903.88,1057.87c-.52,2.24-2.84,11.1-3.7,13.68h-41.8v-2.41c8-.6,8.6-1.38,8.6-8.43v-33.98c0-7.66-.95-8.09-7.4-8.69v-2.41h26.32c8.08,0,11.44-.09,12.47-.17.09,2.15.43,8.6.78,13.16l-2.58.43c-.77-2.92-1.63-4.73-2.58-6.54-1.38-2.84-3.35-3.44-8.51-3.44h-8.17c-2.67,0-2.84.26-2.84,2.75v19.01h9.55c6.45,0,6.88-1.29,7.91-7.14h2.67v17.72h-2.67c-1.12-6.19-1.81-7.05-8-7.05h-9.46v17.12c0,6.02,1.89,6.54,6.19,6.62h8c5.25,0,6.11-.77,8-3.01,1.63-1.81,3.44-5.33,4.65-7.91l2.58.69h0Z"></path>
    <path class="cls-1" d="M968.47,1018.05c-5.76.78-7.23,1.55-10.32,9.29-2.32,5.68-14.19,34.49-18.41,45.16h-2.84c-5.08-13.85-12.47-33.98-17.37-46.71-2.41-6.36-3.87-7.23-9.12-7.74v-2.41h21.85v2.41c-6.37.69-6.71,1.72-5.5,4.9,2.15,6.28,8.43,23.39,13.85,37.67,4.56-11.1,10.24-25.12,14.28-35.95,1.89-4.99.86-5.76-6.19-6.62v-2.41h19.78v2.41h-.01Z"></path>
    <path class="cls-1" d="M1000.81,1071.55v-2.41c5.59-.69,6.28-1.55,5.07-4.82-1.12-3.35-2.84-7.66-4.64-13.07h-18.58c-1.38,3.87-2.67,7.23-3.87,10.75-1.89,5.59-.69,6.28,6.36,7.14v2.41h-19.87v-2.41c5.42-.69,6.8-1.29,9.81-9.03l17.81-45.16,2.75-.52c5.42,14.71,11.35,30.97,16.77,45.85,2.75,7.48,3.53,8.17,9.63,8.86v2.41h-21.24ZM992.21,1025.71c-2.75,7.4-5.68,15.22-8.26,22.02h16.09l-7.83-22.02Z"></path>
  </g>
</svg>
