<?xml version="1.0" encoding="UTF-8"?>
<svg xmlns="http://www.w3.org/2000/svg" id="Capa_1" height="512" viewBox="0 0 512 512" width="512">
  <path d="m497 363.401c-23.616 0-35.965 6.155-46.86 11.587-9.456 4.713-16.924 8.435-33.477 8.435s-24.02-3.723-33.477-8.435c-9.159-4.566-19.347-9.642-36.389-11.144v-195.223h150.203c8.284 0 15-6.716 15-15s-6.716-15-15-15h-90.205v-65.09c0-24.83-20.186-45.031-44.999-45.031-24.811 0-44.998 20.201-44.998 45.031v65.09h-61.495v-65.09c0-24.83-20.187-45.031-44.999-45.031s-44.999 20.201-44.999 45.031v65.09h-150.305c-8.284 0-15 6.716-15 15s6.716 15 15 15h150.305v195.212c-17.109 1.49-27.321 6.579-36.5 11.155-9.454 4.713-16.922 8.435-33.474 8.435s-24.02-3.723-33.474-8.435c-10.895-5.431-23.243-11.587-46.857-11.587-8.284 0-15 6.716-15 15s6.716 15 15 15c16.551 0 24.019 3.723 33.473 8.436 10.896 5.432 23.244 11.587 46.858 11.587s35.963-6.155 46.858-11.587c9.454-4.713 16.922-8.436 33.474-8.436 16.551 0 24.018 3.723 33.473 8.436 10.895 5.432 23.243 11.587 46.857 11.587 23.615 0 35.964-6.155 46.859-11.587 9.454-4.713 16.922-8.436 33.474-8.436 16.554 0 24.021 3.723 33.478 8.436 10.895 5.432 23.244 11.587 46.859 11.587s35.964-6.155 46.859-11.587c9.456-4.713 16.924-8.436 33.478-8.436 8.284 0 15-6.716 15-15s-6.716-15-15-15zm-301.695-110.614h121.493v50.088h-121.493zm151.493-179.256c0-8.288 6.728-15.031 14.998-15.031 8.271 0 14.999 6.743 14.999 15.031v65.09h-29.997zm-151.493 0c0-8.288 6.729-15.031 14.999-15.031 8.271 0 14.999 6.743 14.999 15.031v65.09h-29.998zm121.493 95.09v54.166h-121.493v-54.166zm-27.329 206.367c-9.455 4.713-16.924 8.435-33.475 8.435s-24.019-3.723-33.473-8.435c-7.384-3.681-15.441-7.693-27.216-9.897v-32.216h121.493v32.194c-11.837 2.2-19.921 6.226-27.329 9.919z"></path>
  <path d="m497 433.478c-23.615 0-35.965 6.155-46.86 11.586-9.455 4.713-16.924 8.436-33.477 8.436s-24.021-3.723-33.477-8.436c-10.896-5.431-23.244-11.586-46.86-11.586-23.614 0-35.963 6.155-46.858 11.586-9.455 4.713-16.923 8.436-33.475 8.436-16.551 0-24.019-3.723-33.474-8.436-10.895-5.431-23.242-11.586-46.856-11.586s-35.963 6.155-46.857 11.586c-9.455 4.713-16.923 8.436-33.475 8.436s-24.02-3.723-33.475-8.436c-10.894-5.43-23.243-11.586-46.856-11.586-8.284 0-15 6.716-15 15s6.716 15 15 15c16.551 0 24.019 3.723 33.474 8.436 10.895 5.431 23.243 11.586 46.858 11.586 23.614 0 35.963-6.155 46.857-11.586 9.455-4.713 16.923-8.436 33.475-8.436 16.551 0 24.018 3.723 33.473 8.436 10.896 5.431 23.243 11.586 46.857 11.586 23.615 0 35.964-6.155 46.858-11.586 9.455-4.713 16.923-8.436 33.475-8.436 16.554 0 24.022 3.723 33.478 8.436 10.895 5.431 23.244 11.586 46.859 11.586s35.964-6.155 46.859-11.586c9.455-4.713 16.924-8.436 33.478-8.436 8.284 0 15-6.716 15-15-.001-8.284-6.717-15-15.001-15z"></path>
</svg>
