<?xml version="1.0" encoding="UTF-8"?>
<svg xmlns="http://www.w3.org/2000/svg" viewBox="0 0 512 512">
  <path d="M484.693 71.68l-51.2-68.267c-3.413-4.267-10.24-4.267-13.653 0l-51.2 68.267c-.853 1.707-1.707 3.413-1.707 5.12v68.267h-51.2V76.8c0-1.707-.853-3.413-1.707-5.12l-51.2-68.267C261.12.853 258.56 0 256 0c-2.56 0-5.12.853-6.827 3.413l-51.2 68.267c-.853 1.707-1.707 3.413-1.707 5.12v68.267h-51.2V76.8c0-1.707-.853-3.413-1.707-5.12L92.16 3.413c-3.413-4.267-10.24-4.267-13.653 0l-51.2 68.267c-.853 1.707-1.707 3.413-1.707 5.12v409.6c0 14.507 11.093 25.6 25.6 25.6h68.267c14.507 0 25.6-11.093 25.6-25.6v-42.667h51.2V486.4c0 14.507 11.093 25.6 25.6 25.6h68.267c14.507 0 25.6-11.093 25.6-25.6v-42.667h51.2V486.4c0 14.507 11.093 25.6 25.6 25.6H460.8c14.507 0 25.6-11.093 25.6-25.6V76.8c0-1.707-.853-3.413-1.707-5.12zm-168.96 141.653h51.2v162.133h-51.2V213.333zm51.2-51.2v34.133h-51.2v-34.133h51.2zm-221.866 51.2h51.2v162.133h-51.2V213.333zm51.2-51.2v34.133h-51.2v-34.133h51.2zM128 486.4c0 4.267-3.413 8.533-8.533 8.533H51.2c-4.267 0-8.533-3.413-8.533-8.533V79.36l42.667-56.32L128 79.36V486.4zm17.067-59.733v-34.133h51.2v34.133h-51.2zm153.6 59.733c0 4.267-3.413 8.533-8.533 8.533h-68.267c-4.267 0-8.533-3.413-8.533-8.533V79.36L256 22.187l42.667 57.173V486.4zm17.066-59.733v-34.133h51.2v34.133h-51.2zm153.6 59.733c0 4.267-3.413 8.533-8.533 8.533h-68.267c-4.267 0-8.533-3.413-8.533-8.533V79.36l42.667-57.173 42.667 57.173V486.4z"></path>
  <path d="M85.333 170.667c-5.12 0-8.533 3.413-8.533 8.533s3.413 8.533 8.533 8.533 8.533-3.413 8.533-8.533-3.413-8.533-8.533-8.533zM256 170.667c-5.12 0-8.533 3.413-8.533 8.533s3.413 8.533 8.533 8.533c5.12 0 8.533-3.413 8.533-8.533s-3.413-8.533-8.533-8.533zM418.133 179.2c0 5.12 3.413 8.533 8.533 8.533s8.533-3.413 8.533-8.533-3.413-8.533-8.533-8.533-8.533 3.413-8.533 8.533zM85.333 401.067c-5.12 0-8.533 3.413-8.533 8.533s3.413 8.533 8.533 8.533 8.533-3.413 8.533-8.533-3.413-8.533-8.533-8.533zM256 401.067c-5.12 0-8.533 3.413-8.533 8.533s3.413 8.533 8.533 8.533c5.12 0 8.533-3.413 8.533-8.533s-3.413-8.533-8.533-8.533zM426.667 401.067c-5.12 0-8.533 3.413-8.533 8.533s3.413 8.533 8.533 8.533 8.533-3.413 8.533-8.533-3.413-8.533-8.533-8.533z"></path>
</svg>
