<?xml version="1.0" encoding="UTF-8"?>
<svg xmlns="http://www.w3.org/2000/svg" viewBox="0 0 20 20" fill="none">
  <path d="M4.375 16.25C4.375 16.4158 4.30915 16.5747 4.19194 16.6919C4.07473 16.8092 3.91576 16.875 3.75 16.875H1.25C1.08424 16.875 0.925269 16.8092 0.808058 16.6919C0.690848 16.5747 0.625 16.4158 0.625 16.25V4.375C0.625 3.87772 0.822544 3.40081 1.17417 3.04917C1.52581 2.69754 2.00272 2.5 2.5 2.5C2.99728 2.5 3.47419 2.69754 3.82582 3.04917C4.17746 3.40081 4.375 3.87772 4.375 4.375V16.25Z" stroke="#151515" stroke-width="1.2" stroke-linecap="round" stroke-linejoin="round"></path>
  <path d="M11.875 16.25C11.875 16.4158 11.8092 16.5747 11.6919 16.6919C11.5747 16.8092 11.4158 16.875 11.25 16.875H8.75C8.58424 16.875 8.42527 16.8092 8.30806 16.6919C8.19085 16.5747 8.125 16.4158 8.125 16.25V4.375C8.125 3.87772 8.32254 3.40081 8.67417 3.04917C9.02581 2.69754 9.50272 2.5 10 2.5C10.4973 2.5 10.9742 2.69754 11.3258 3.04917C11.6775 3.40081 11.875 3.87772 11.875 4.375V16.25Z" stroke="#151515" stroke-width="1.2" stroke-linecap="round" stroke-linejoin="round"></path>
  <path d="M19.375 16.25C19.375 16.4158 19.3092 16.5747 19.1919 16.6919C19.0747 16.8092 18.9158 16.875 18.75 16.875H16.25C16.0842 16.875 15.9253 16.8092 15.8081 16.6919C15.6908 16.5747 15.625 16.4158 15.625 16.25V4.375C15.625 3.87772 15.8225 3.40081 16.1742 3.04917C16.5258 2.69754 17.0027 2.5 17.5 2.5C17.9973 2.5 18.4742 2.69754 18.8258 3.04917C19.1775 3.40081 19.375 3.87772 19.375 4.375V16.25Z" stroke="#151515" stroke-width="1.2" stroke-linecap="round" stroke-linejoin="round"></path>
  <path d="M4.375 6.875H8.125" stroke="#151515" stroke-width="1.2" stroke-linecap="round" stroke-linejoin="round"></path>
  <path d="M11.875 6.875H15.625" stroke="#151515" stroke-width="1.2" stroke-linecap="round" stroke-linejoin="round"></path>
  <path d="M4.375 14.375H8.125" stroke="#151515" stroke-width="1.2" stroke-linecap="round" stroke-linejoin="round"></path>
  <path d="M11.875 14.375H15.625" stroke="#151515" stroke-width="1.2" stroke-linecap="round" stroke-linejoin="round"></path>
</svg>
