<svg xmlns="http://www.w3.org/2000/svg" xmlns:xlink="http://www.w3.org/1999/xlink" viewBox="0 0 512 512"><g><g><path d="M501,238.9l-56.3-52.4V14.3H379v111.1L256,11L11,238.9h56.3V501h131.4V372.7c0-25.4,26.1-46.5,57.3-46.5    s57.3,21,57.3,46.5v127.2h130.3v-261H501z M397.8,34.2h27.1v133.8l-27.1-25.2V34.2z M62.1,218.9L256,37.5l195,181.4H62.1z     M424.9,480h-92.8V372.7c0-37.6-34.4-67.5-76.1-67.5s-76.1,31-76.1,67.5V480H87.1V238.9h337.8V480z"></path><path d="m256,108.3c-24,0-42.7,17.7-42.7,40.9 0,22.1 18.8,40.9 42.7,40.9 22.9,0 42.7-17.7 42.7-40.9 0-22.1-19.8-40.9-42.7-40.9zm0,62c-12.5,0-22.9-10-22.9-21s10.4-21 22.9-21 22.9,10 22.9,21-10.4,21-22.9,21z"></path></g></g></svg>