<?xml version="1.0" encoding="UTF-8"?>
<svg xmlns="http://www.w3.org/2000/svg" viewBox="0 0 22 20" fill="none">
  <path d="M20.5834 11.6667C20.5839 11.1069 20.4714 10.5529 20.2527 10.0377C20.0339 9.52244 19.7134 9.05669 19.3103 8.66832C18.9073 8.27995 18.4299 7.97695 17.9069 7.77749C17.3839 7.57802 16.8261 7.4862 16.2667 7.50751C15.7152 6.33628 14.7891 5.38222 13.6348 4.79604C12.4805 4.20985 11.1638 4.02497 9.89268 4.27058C8.62158 4.5162 7.46855 5.17832 6.61574 6.15235C5.76292 7.12637 5.25894 8.35677 5.18341 9.64918C4.72844 9.55388 4.25794 9.56125 3.80618 9.67076C3.35442 9.78027 2.93277 9.98916 2.57194 10.2822C2.21111 10.5753 1.92018 10.9451 1.72034 11.3648C1.5205 11.7845 1.41679 12.2435 1.41675 12.7083C1.41675 15.8833 4.75008 15.8333 4.75008 15.8333H16.8334C16.8334 15.8333 20.5834 15.345 20.5834 11.6667Z" stroke="#151515" stroke-width="1.2" stroke-linecap="round" stroke-linejoin="round"></path>
</svg>
