<svg xmlns="http://www.w3.org/2000/svg" viewBox="0 0 24 24" role="presentation" aria-hidden="true" focusable="false" style="height: 19px; width: 19px; fill: currentcolor;"><path d="m23.5 23h-.5v-11.09a1.49 1.49 0 0 0 1-1.41 1.5 1.5 0 0 0 -1.5-1.5h-20.99a1.5 1.5 0 0 0 -.5 2.91v11.09h-.5a.5.5 0 1 0 0 1h23a .5.5 0 0 0 0-1zm-19.5 0h-2v-11h2zm3 0h-2v-11h2zm3 0h-2v-11h2zm3 0h-2v-11h2zm3 0h-2v-11h2zm3 0h-2v-11h2zm3 0h-2v-11h2zm0-12h-20.5a.5.5 0 0 1 -.5-.5c0-.28.22-.5.5-.5h20.99a.5.5 0 0 1 .5.5c0 .28-.22.5-.5.5zm-10.88-7.29c-.92-1.26-.76-2.38.06-3.18a2.6 2.6 0 0 1 .66-.48.5.5 0 1 1 .43.9 1.66 1.66 0 0 0 -.4.29c-.48.47-.56 1.04.01 1.83 2.09 2.27 2.09 4.26.34 4.89a.5.5 0 0 1 -.34-.94c.94-.34.94-1.46-.77-3.32zm4 0c-.92-1.26-.76-2.38.06-3.18a2.6 2.6 0 0 1 .66-.48.5.5 0 1 1 .43.9 1.66 1.66 0 0 0 -.4.29c-.48.47-.56 1.04.01 1.83 2.09 2.27 2.09 4.26.34 4.89a.5.5 0 0 1 -.34-.94c.94-.34.94-1.46-.77-3.32zm-8 0c-.92-1.26-.76-2.38.06-3.18a2.6 2.6 0 0 1 .66-.48.5.5 0 1 1 .43.9 1.66 1.66 0 0 0 -.4.29c-.48.47-.56 1.04.01 1.83 2.09 2.27 2.09 4.26.34 4.89a.5.5 0 0 1 -.34-.94c.94-.34.94-1.46-.77-3.32z" fill-rule="evenodd"/></svg>