<svg xmlns="http://www.w3.org/2000/svg" viewBox="0 0 24 24" role="presentation" aria-hidden="true" focusable="false" style="height: 19px; width: 19px; fill: currentcolor;"><path d="M22.5 23H21V1h1.5a.5.5 0 0 0 0-1H.5a.5.5 0 1 0 0 1H2v22H.5a.5.5 0 1 0 0 1h22a.5.5 0 0 0 0-1zM11 3v20H3V1h8v2zm9 20h-8V1h8v22zM4.146 10.854a.5.5 0 0 1 0-.708l2-2a.5.5 0 0 1 .708 0l2 2a.5.5 0 1 1-.708.708L7 9.707V14.5a.5.5 0 0 1-1 0V9.707l-1.146 1.147a.5.5 0 0 1-.708 0zm10 2a.5.5 0 1 1 .708-.708L16 13.293V8.5a.5.5 0 1 1 1 0v4.793l1.146-1.147a.5.5 0 0 1 .708.708l-2 2a.5.5 0 0 1-.708 0l-2-2z" fill-rule="evenodd"/></svg>