<?xml version="1.0" encoding="iso-8859-1"?>
<!-- Generator: Adobe Illustrator 19.0.0, SVG Export Plug-In . SVG Version: 6.00 Build 0)  -->
<svg version="1.1" id="Capa_1" xmlns="http://www.w3.org/2000/svg" xmlns:xlink="http://www.w3.org/1999/xlink" x="0px" y="0px"
	 viewBox="0 0 512.001 512.001" style="enable-background:new 0 0 512.001 512.001;" xml:space="preserve">
<g>
	<g>
		<path d="M80.681,0v431.028l78.193,40.928h28.721v40.045h30.001v-40.045h76.811v40.045h30.001v-40.045h28.722l78.192-40.928V0
			H80.681z M401.319,412.869l-55.569,29.086H166.251l-55.569-29.086v-45.934h290.638V412.869z M401.319,336.935H110.682V30.001
			h290.638V336.935z"/>
	</g>
</g>
<g>
	<g>
		<path d="M264.777,73.124L256,66.789l-8.777,6.335c-1.48,1.067-36.248,26.574-36.248,62.772c0,24.827,20.198,45.024,45.025,45.024
			s45.025-20.197,45.025-45.024C301.025,99.697,266.257,74.191,264.777,73.124z M256,150.92c-8.284,0-15.024-6.739-15.024-15.023
			c0-10.264,6.051-19.836,11.128-26.06c1.31-1.605,2.629-3.083,3.896-4.417c1.268,1.334,2.587,2.812,3.896,4.417
			c5.077,6.223,11.128,15.795,11.128,26.06C271.024,144.18,264.284,150.92,256,150.92z"/>
	</g>
</g>
<g>
	<g>
		<rect x="202.595" y="276.887" width="106.813" height="30.001"/>
	</g>
</g>
<g>
</g>
<g>
</g>
<g>
</g>
<g>
</g>
<g>
</g>
<g>
</g>
<g>
</g>
<g>
</g>
<g>
</g>
<g>
</g>
<g>
</g>
<g>
</g>
<g>
</g>
<g>
</g>
<g>
</g>
</svg>
