<svg xmlns="http://www.w3.org/2000/svg" viewBox="0 0 24 24" role="presentation" aria-hidden="true" focusable="false" style="height: 19px; width: 19px; fill: currentcolor;"><path d="m22 10v-2.5a1.5 1.5 0 0 0 -2.06-1.39 1.5 1.5 0 0 0 -2.94.39v3.5h-10v-3.5a1.5 1.5 0 0 0 -1.5-1.5c-.7 0-1.27.47-1.44 1.11a1.5 1.5 0 0 0 -2.06 1.39v2.5c-1.1 0-2 .89-2 2s .89 2 2 2v2.5a1.5 1.5 0 0 0 2.06 1.39 1.5 1.5 0 0 0 2.94-.39v-3.5h10v3.5a1.5 1.5 0 0 0 1.5 1.5c.7 0 1.27-.47 1.44-1.11a1.5 1.5 0 0 0 2.06-1.38v-2.51c1.11 0 2-.89 2-2s-.9-2-2-2zm-20 3c-.56 0-1-.45-1-1a1 1 0 0 1 1-1zm1.5 4a .5.5 0 0 1 -.5-.5v-9c0-.28.22-.5.5-.5s.5.22.5.5v9.01a.5.5 0 0 1 -.5.5zm2.5.5a.5.5 0 1 1 -1 0v-11a .5.5 0 1 1 1 0zm11-4.5h-10v-2h10zm2-5.5v10a .5.5 0 1 1 -1 0v-11a .5.5 0 1 1 1 0zm2 9.01a.5.5 0 0 1 -.5.5.5.5 0 0 1 -.5-.5v-9.01c0-.28.22-.5.5-.5s.5.22.5.5zm1-3.51v-2a1 1 0 0 1 1 1c0 .56-.44 1-1 1z" fill-rule="evenodd"/></svg>