<svg xmlns="http://www.w3.org/2000/svg" viewBox="0 0 24 24" role="presentation" aria-hidden="true" focusable="false" style="height: 19px; width: 19px; fill: currentcolor;"><path d="m10.5 0a .5.5 0 0 0 -.5.5v7a .5.5 0 0 1 -.49.5h-1.51v-7.5a.5.5 0 1 0 -1 0v7.5h-1.51a.5.5 0 0 1 -.49-.5v-7a .5.5 0 1 0 -1 0v7c0 .83.67 1.5 1.49 1.5h1.51v5c0 .03.01.06.02.09a1.49 1.49 0 0 0 -1.02 1.41v7c0 .83.67 1.5 1.5 1.5s1.5-.67 1.5-1.5v-7c0-.66-.43-1.21-1.02-1.41.01-.03.02-.06.02-.09v-5h1.51a1.5 1.5 0 0 0 1.49-1.5v-7a .5.5 0 0 0 -.5-.5zm-2.5 15.5v7a .5.5 0 0 1 -.5.5.5.5 0 0 1 -.5-.5v-7c0-.28.22-.5.5-.5s.5.22.5.5zm11.5-15.5h-2c-1.4 0-2.5 1.07-2.5 2.5v7c0 1.43 1.1 2.5 2.5 2.5h1.5v2.09a1.49 1.49 0 0 0 -.5-.09c-.83 0-1.5.67-1.5 1.5v7c0 .83.67 1.5 1.5 1.5s1.5-.67 1.5-1.5v-22.5zm-2 11c-.86 0-1.5-.63-1.5-1.5v-7c0-.87.65-1.5 1.5-1.5h1.5v10zm1.5 11.5a.5.5 0 0 1 -.5.5.5.5 0 0 1 -.5-.5v-7c0-.28.22-.5.5-.5s.5.22.5.5z" fill-rule="evenodd"/></svg>