<?xml version="1.0" encoding="iso-8859-1"?>
<!-- Generator: Adobe Illustrator 19.0.0, SVG Export Plug-In . SVG Version: 6.00 Build 0)  -->
<svg version="1.1" id="Capa_1" xmlns="http://www.w3.org/2000/svg" xmlns:xlink="http://www.w3.org/1999/xlink" x="0px" y="0px"
	 viewBox="0 0 512 512" style="enable-background:new 0 0 512 512;" xml:space="preserve">
<g>
	<g>
		<path d="M460.704,439.729C450.572,446.853,443.252,452,426.663,452s-23.909-5.147-34.041-12.271
			C381.388,431.83,367.406,422,341.326,422c-26.079,0-40.06,9.831-51.294,17.729C279.901,446.854,272.581,452,255.993,452
			c-16.587,0-23.907-5.146-34.038-12.271C210.722,431.831,196.741,422,170.663,422c-26.079,0-40.06,9.831-51.294,17.729
			C109.238,446.854,101.918,452,85.331,452c-16.587,0-23.906-5.146-34.037-12.271C40.06,431.831,26.079,422,0,422v30
			c16.587,0,23.907,5.146,34.038,12.271C45.271,472.169,59.252,482,85.331,482c26.079,0,40.06-9.831,51.294-17.729
			c10.13-7.125,17.45-12.271,34.038-12.271c16.587,0,23.906,5.146,34.037,12.271C215.934,472.169,229.915,482,255.993,482
			s40.06-9.831,51.294-17.729C317.418,457.146,324.738,452,341.326,452c16.589,0,23.909,5.147,34.041,12.271
			C386.602,472.17,400.583,482,426.663,482c26.08,0,40.062-9.83,51.296-17.729C488.091,457.147,495.411,452,512,452v-30
			C485.92,422,471.938,431.83,460.704,439.729z"/>
	</g>
</g>
<g>
	<g>
		<path d="M460.704,359.729C450.572,366.853,443.252,372,426.663,372c-16.589,0-23.909-5.147-34.041-12.271
			c-8.86-6.229-19.433-13.656-36.296-16.519V30h-30v51H185.663V30h-30v313.211c-16.862,2.863-27.435,10.29-36.294,16.519
			C109.238,366.854,101.918,372,85.331,372c-16.587,0-23.906-5.146-34.037-12.271C40.06,351.831,26.079,342,0,342v30
			c16.587,0,23.907,5.146,34.038,12.271C45.271,392.169,59.252,402,85.331,402c26.079,0,40.06-9.831,51.294-17.729
			c10.13-7.125,17.45-12.271,34.038-12.271c16.587,0,23.906,5.146,34.037,12.271C215.934,392.169,229.915,402,255.993,402
			s40.06-9.831,51.294-17.729C317.418,377.146,324.738,372,341.326,372c16.589,0,23.909,5.147,34.041,12.271
			C386.602,392.17,400.583,402,426.663,402c26.08,0,40.062-9.83,51.296-17.729C488.091,377.147,495.411,372,512,372v-30
			C485.92,342,471.938,351.83,460.704,359.729z M185.663,111h140.663v60H185.663V111z M326.326,343.211
			c-16.862,2.863-27.435,10.29-36.294,16.518C279.901,366.854,272.581,372,255.993,372c-16.587,0-23.907-5.146-34.038-12.271
			c-8.859-6.229-19.432-13.655-36.293-16.519V291h140.664V343.211z M326.327,261h-0.001H185.663v-60h140.664V261z"/>
	</g>
</g>
<g>
</g>
<g>
</g>
<g>
</g>
<g>
</g>
<g>
</g>
<g>
</g>
<g>
</g>
<g>
</g>
<g>
</g>
<g>
</g>
<g>
</g>
<g>
</g>
<g>
</g>
<g>
</g>
<g>
</g>
</svg>
