<svg xmlns="http://www.w3.org/2000/svg" viewBox="0 0 24 24" role="presentation" aria-hidden="true" focusable="false" style="height: 19px; width: 19px; fill: currentcolor;"><path d="m21.5 6h-9.07l3.49-5.22a.5.5 0 1 0 -.83-.55l-3.86 5.77h-2.46l-3.85-5.78a.5.5 0 0 0 -.83.55l3.48 5.23h-5.07a2.5 2.5 0 0 0 -2.5 2.5v13c0 1.39 1.12 2.5 2.5 2.5h19c1.38 0 2.5-1.12 2.5-2.5v-13c0-1.38-1.12-2.5-2.5-2.5zm1.5 15.5c0 .83-.68 1.5-1.5 1.5h-19c-.83 0-1.5-.67-1.5-1.5v-13c0-.83.68-1.5 1.5-1.5h19c .83 0 1.5.67 1.5 1.5zm-6.49-12.5h-11.02a2.49 2.49 0 0 0 -2.49 2.49v7.02a2.5 2.5 0 0 0 2.49 2.49h11.02a2.49 2.49 0 0 0 2.49-2.49v-7.02a2.5 2.5 0 0 0 -2.49-2.49zm1.49 9.51c0 .82-.67 1.49-1.49 1.49h-11.02c-.82 0-1.49-.67-1.49-1.49v-7.02c0-.82.67-1.49 1.49-1.49h11.02c.82 0 1.49.67 1.49 1.49zm4-8.51a1 1 0 1 1 -2 0 1 1 0 0 1 2 0zm0 3a1 1 0 1 1 -2 0 1 1 0 0 1 2 0z" fill-rule="evenodd"/></svg>