<?xml version="1.0" encoding="iso-8859-1"?>
<!-- Generator: Adobe Illustrator 19.0.0, SVG Export Plug-In . SVG Version: 6.00 Build 0)  -->
<svg version="1.1" id="Capa_1" xmlns="http://www.w3.org/2000/svg" xmlns:xlink="http://www.w3.org/1999/xlink" x="0px" y="0px"
	 viewBox="0 0 512 512" style="enable-background:new 0 0 512 512;" xml:space="preserve">
<g>
	<g>
		<path d="M381.788,112.93l-11.331-13.069l-11.331,13.07c-1.24,1.431-26.592,30.807-54.725,72.526
			c-10.391-19.831-22.517-40.549-36.383-62.129C227.844,60.804,188.287,14.99,186.623,13.07L175.293,0l-11.331,13.069
			c-1.665,1.919-41.221,47.734-81.395,110.258C27.829,208.514,0.074,280.33,0.074,336.783C0.074,433.398,78.677,512,175.292,512
			c38.622,0,74.357-12.57,103.351-33.82c25.569,21.897,57.692,33.82,91.814,33.82c78.005,0,141.469-63.463,141.469-141.469
			C511.926,264.267,387.102,119.06,381.788,112.93z M175.291,482.009c-80.078,0-145.226-65.148-145.226-145.226
			c0-102.389,109.245-245.904,145.229-290.393c35.984,44.466,145.223,187.91,145.223,290.393
			C320.517,416.861,255.369,482.009,175.291,482.009z M370.458,482.009c-25.388,0-49.373-8.379-68.932-23.839
			c30.315-31.514,48.983-74.309,48.983-121.387c0-34.433-10.345-74.592-30.821-120.004c19.368-30.164,38.908-55.66,50.761-70.447
			c30.402,37.977,111.486,146.55,111.486,224.201C481.934,432,431.926,482.009,370.458,482.009z"/>
	</g>
</g>
<g>
	<g>
		<path d="M293.39,331.42c-1.111-29.794-12.616-51.54-13.106-52.451l-26.422,14.188c0.087,0.162,8.717,16.821,9.559,39.38
			c1.132,30.349-12.012,56.617-39.065,78.073l18.637,23.498C286.524,399.583,294.427,359.209,293.39,331.42z"/>
	</g>
</g>
<g>
	<g>
		<path d="M462.709,368.29c-0.788-21.138-8.647-36.341-9.541-38.006l-13.211,7.094l-13.256,7.01
			c0.058,0.111,5.773,11.266,6.067,26.078c0.373,18.772-8.046,35.116-25.022,48.579l18.638,23.498
			C457.767,417.652,463.46,388.426,462.709,368.29z"/>
	</g>
</g>
<g>
</g>
<g>
</g>
<g>
</g>
<g>
</g>
<g>
</g>
<g>
</g>
<g>
</g>
<g>
</g>
<g>
</g>
<g>
</g>
<g>
</g>
<g>
</g>
<g>
</g>
<g>
</g>
<g>
</g>
</svg>
