<svg xmlns="http://www.w3.org/2000/svg" viewBox="0 0 24 24" role="presentation" aria-hidden="true" focusable="false" style="height: 19px; width: 19px; fill: currentcolor;"><path d="m12 15a3 3 0 1 0 0 6 3 3 0 0 0 0-6zm0 5a2 2 0 1 1 0-4 2 2 0 0 1 0 4zm5.92-5.78a.5.5 0 1 1 -.84.55c-1.19-1.81-3.07-2.77-5.08-2.77s-3.89.96-5.08 2.78a.5.5 0 0 1 -.84-.55c1.38-2.1 3.58-3.23 5.92-3.23s4.54 1.13 5.92 3.23zm2.98-3.03a.5.5 0 1 1 -.79.61c-1.66-2.14-5.22-3.8-8.11-3.8-2.83 0-6.26 1.62-8.12 3.82a.5.5 0 0 1 -.76-.65c2.05-2.42 5.75-4.17 8.88-4.17 3.19 0 7.05 1.8 8.9 4.19zm2.95-2.33a.5.5 0 0 1 -.71-.02c-2.94-3.07-6.71-4.84-11.14-4.84s-8.2 1.77-11.14 4.85a.5.5 0 0 1 -.72-.69c3.12-3.27 7.14-5.16 11.86-5.16s8.74 1.89 11.86 5.16a.5.5 0 0 1 -.02.71z" fill-rule="evenodd"/></svg>