<?xml version="1.0" encoding="UTF-8"?> <svg xmlns="http://www.w3.org/2000/svg" width="558" height="163" viewBox="0 0 558 163" fill="none"><path d="M51.714 51.7095H30.253L0 81.4737L30.253 111.277H51.714L21.4651 81.4737L51.714 51.7095Z" fill="#002B2B"></path><path d="M132.741 51.7095H111.281L141.538 81.522L111.281 111.277H132.741L163 81.522L132.741 51.7095Z" fill="#002B2B"></path><path d="M111.281 51.7093V30.2471L81.5254 0L51.714 30.2471V51.7093L81.5254 21.4616L111.281 51.7093Z" fill="#E5FF5E" fill-opacity="0.788235"></path><path d="M51.714 111.276V132.741L81.4758 162.996L111.281 132.741V111.276L81.4758 141.531L51.714 111.276Z" fill="#002B2B"></path><path d="M251.41 22.005L235.66 73H224.95L215.36 41.395C215.173 40.905 214.998 40.3683 214.835 39.785C214.672 39.1783 214.508 38.5483 214.345 37.895C214.182 38.5483 214.018 39.1783 213.855 39.785C213.692 40.3683 213.517 40.905 213.33 41.395L203.6 73H192.89L177.14 22.005H187.08C188.107 22.005 188.958 22.2383 189.635 22.705C190.335 23.1717 190.79 23.79 191 24.56L198 51.16C198.21 52 198.42 52.9217 198.63 53.925C198.84 54.905 199.05 55.9317 199.26 57.005C199.68 54.8117 200.193 52.8633 200.8 51.16L209.06 24.56C209.27 23.9067 209.713 23.3233 210.39 22.81C211.09 22.2733 211.93 22.005 212.91 22.005H216.41C217.437 22.005 218.265 22.25 218.895 22.74C219.525 23.2067 220.003 23.8133 220.33 24.56L228.52 51.16C229.127 52.7933 229.64 54.6483 230.06 56.725C230.247 55.675 230.433 54.695 230.62 53.785C230.83 52.8517 231.04 51.9767 231.25 51.16L238.25 24.56C238.437 23.8833 238.88 23.2883 239.58 22.775C240.28 22.2617 241.12 22.005 242.1 22.005H251.41ZM274.505 47.03C277.585 47.03 279.802 46.295 281.155 44.825C282.508 43.355 283.185 41.3017 283.185 38.665C283.185 37.4983 283.01 36.4367 282.66 35.48C282.31 34.5233 281.773 33.7067 281.05 33.03C280.35 32.33 279.452 31.7933 278.355 31.42C277.282 31.0467 275.998 30.86 274.505 30.86H268.345V47.03H274.505ZM274.505 22.005C278.098 22.005 281.178 22.4367 283.745 23.3C286.335 24.14 288.458 25.3067 290.115 26.8C291.795 28.2933 293.032 30.055 293.825 32.085C294.618 34.115 295.015 36.3083 295.015 38.665C295.015 41.2083 294.607 43.5417 293.79 45.665C292.973 47.7883 291.725 49.6083 290.045 51.125C288.365 52.6417 286.23 53.8317 283.64 54.695C281.073 55.535 278.028 55.955 274.505 55.955H268.345V73H256.515V22.005H274.505Z" fill="#E5FF5E" fill-opacity="0.788235"></path><path d="M198.525 116.98C200.135 116.98 201.5 116.782 202.62 116.385C203.763 115.965 204.697 115.393 205.42 114.67C206.143 113.947 206.668 113.107 206.995 112.15C207.322 111.17 207.485 110.12 207.485 109C207.485 106.76 206.75 105.01 205.28 103.75C203.833 102.49 201.582 101.86 198.525 101.86H193.765V116.98H198.525ZM223.655 144H212.945C210.962 144 209.538 143.253 208.675 141.76L200.205 126.955C199.808 126.325 199.365 125.87 198.875 125.59C198.385 125.287 197.685 125.135 196.775 125.135H193.765V144H181.935V93.005H198.525C202.212 93.005 205.35 93.39 207.94 94.16C210.553 94.9067 212.677 95.9567 214.31 97.31C215.967 98.6633 217.168 100.262 217.915 102.105C218.662 103.948 219.035 105.955 219.035 108.125C219.035 109.782 218.813 111.345 218.37 112.815C217.927 114.285 217.273 115.65 216.41 116.91C215.547 118.147 214.473 119.255 213.19 120.235C211.93 121.215 210.472 122.02 208.815 122.65C209.585 123.047 210.308 123.548 210.985 124.155C211.662 124.738 212.268 125.438 212.805 126.255L223.655 144ZM239.841 102.105V114.005H255.871V122.755H239.841V134.9H260.771V144H227.941V93.005H260.771V102.105H239.841ZM296.243 103.365C295.893 103.925 295.519 104.345 295.123 104.625C294.749 104.905 294.259 105.045 293.653 105.045C293.116 105.045 292.533 104.882 291.903 104.555C291.296 104.205 290.596 103.82 289.803 103.4C289.033 102.98 288.146 102.607 287.143 102.28C286.139 101.93 284.996 101.755 283.713 101.755C281.496 101.755 279.839 102.233 278.743 103.19C277.669 104.123 277.133 105.395 277.133 107.005C277.133 108.032 277.459 108.883 278.113 109.56C278.766 110.237 279.618 110.82 280.668 111.31C281.741 111.8 282.954 112.255 284.308 112.675C285.684 113.072 287.084 113.527 288.508 114.04C289.931 114.53 291.319 115.113 292.673 115.79C294.049 116.467 295.263 117.33 296.313 118.38C297.386 119.43 298.249 120.713 298.903 122.23C299.556 123.723 299.883 125.532 299.883 127.655C299.883 130.012 299.474 132.217 298.658 134.27C297.841 136.323 296.651 138.12 295.088 139.66C293.548 141.177 291.634 142.378 289.348 143.265C287.084 144.128 284.506 144.56 281.613 144.56C280.026 144.56 278.404 144.397 276.748 144.07C275.114 143.743 273.528 143.288 271.988 142.705C270.448 142.098 269.001 141.387 267.648 140.57C266.294 139.753 265.116 138.843 264.113 137.84L267.613 132.31C267.893 131.913 268.254 131.587 268.698 131.33C269.164 131.05 269.666 130.91 270.203 130.91C270.903 130.91 271.603 131.132 272.303 131.575C273.026 132.018 273.831 132.508 274.718 133.045C275.628 133.582 276.666 134.072 277.833 134.515C278.999 134.958 280.376 135.18 281.963 135.18C284.109 135.18 285.778 134.713 286.968 133.78C288.158 132.823 288.753 131.318 288.753 129.265C288.753 128.075 288.426 127.107 287.773 126.36C287.119 125.613 286.256 124.995 285.183 124.505C284.133 124.015 282.931 123.583 281.578 123.21C280.224 122.837 278.836 122.428 277.413 121.985C275.989 121.518 274.601 120.958 273.248 120.305C271.894 119.628 270.681 118.753 269.608 117.68C268.558 116.583 267.706 115.23 267.053 113.62C266.399 111.987 266.073 109.98 266.073 107.6C266.073 105.687 266.458 103.82 267.228 102C267.998 100.18 269.129 98.5583 270.623 97.135C272.116 95.7117 273.948 94.58 276.118 93.74C278.288 92.8767 280.773 92.445 283.573 92.445C285.136 92.445 286.653 92.5733 288.123 92.83C289.616 93.0633 291.028 93.425 292.358 93.915C293.688 94.3817 294.924 94.9533 296.068 95.63C297.234 96.2833 298.273 97.03 299.183 97.87L296.243 103.365ZM318.728 144H306.828V93.005H318.728V144ZM374.836 118.485C374.836 122.172 374.194 125.578 372.911 128.705C371.651 131.808 369.866 134.503 367.556 136.79C365.246 139.053 362.458 140.827 359.191 142.11C355.948 143.37 352.343 144 348.376 144H328.566V93.005H348.376C352.343 93.005 355.948 93.6467 359.191 94.93C362.458 96.2133 365.246 97.9867 367.556 100.25C369.866 102.513 371.651 105.208 372.911 108.335C374.194 111.438 374.836 114.822 374.836 118.485ZM362.726 118.485C362.726 115.965 362.399 113.69 361.746 111.66C361.093 109.63 360.148 107.915 358.911 106.515C357.698 105.092 356.204 104.007 354.431 103.26C352.658 102.49 350.639 102.105 348.376 102.105H340.466V134.9H348.376C350.639 134.9 352.658 134.527 354.431 133.78C356.204 133.01 357.698 131.925 358.911 130.525C360.148 129.102 361.093 127.375 361.746 125.345C362.399 123.315 362.726 121.028 362.726 118.485ZM393.718 102.105V114.005H409.748V122.755H393.718V134.9H414.648V144H381.818V93.005H414.648V102.105H393.718ZM466.465 93.005V144H460.305C459.395 144 458.625 143.86 457.995 143.58C457.388 143.277 456.781 142.763 456.175 142.04L432.13 111.625C432.223 112.535 432.281 113.422 432.305 114.285C432.351 115.125 432.375 115.918 432.375 116.665V144H421.945V93.005H428.175C428.688 93.005 429.12 93.0283 429.47 93.075C429.82 93.1217 430.135 93.215 430.415 93.355C430.695 93.4717 430.963 93.6467 431.22 93.88C431.476 94.1133 431.768 94.4283 432.095 94.825L456.35 125.45C456.233 124.47 456.151 123.525 456.105 122.615C456.058 121.682 456.035 120.807 456.035 119.99V93.005H466.465ZM510.729 130.805C511.009 130.805 511.289 130.863 511.569 130.98C511.849 131.073 512.117 131.248 512.374 131.505L517.064 136.44C515.01 139.123 512.432 141.153 509.329 142.53C506.249 143.883 502.597 144.56 498.374 144.56C494.5 144.56 491.024 143.907 487.944 142.6C484.887 141.27 482.285 139.45 480.139 137.14C478.015 134.807 476.382 132.053 475.239 128.88C474.095 125.683 473.524 122.218 473.524 118.485C473.524 114.682 474.142 111.193 475.379 108.02C476.615 104.823 478.354 102.07 480.594 99.76C482.834 97.45 485.517 95.6533 488.644 94.37C491.77 93.0867 495.212 92.445 498.969 92.445C500.882 92.445 502.679 92.62 504.359 92.97C506.062 93.2967 507.649 93.7633 509.119 94.37C510.589 94.9533 511.942 95.665 513.179 96.505C514.415 97.345 515.512 98.255 516.469 99.235L512.479 104.59C512.222 104.917 511.919 105.22 511.569 105.5C511.219 105.757 510.729 105.885 510.099 105.885C509.679 105.885 509.282 105.792 508.909 105.605C508.535 105.418 508.139 105.197 507.719 104.94C507.299 104.66 506.832 104.368 506.319 104.065C505.829 103.738 505.234 103.447 504.534 103.19C503.857 102.91 503.052 102.677 502.119 102.49C501.209 102.303 500.135 102.21 498.899 102.21C496.939 102.21 495.142 102.572 493.509 103.295C491.899 104.018 490.499 105.08 489.309 106.48C488.142 107.857 487.232 109.56 486.579 111.59C485.949 113.597 485.634 115.895 485.634 118.485C485.634 121.098 485.984 123.42 486.684 125.45C487.407 127.48 488.375 129.195 489.589 130.595C490.825 131.972 492.26 133.022 493.894 133.745C495.527 134.468 497.277 134.83 499.144 134.83C500.217 134.83 501.197 134.783 502.084 134.69C502.97 134.573 503.799 134.398 504.569 134.165C505.339 133.908 506.062 133.582 506.739 133.185C507.415 132.765 508.104 132.24 508.804 131.61C509.084 131.377 509.387 131.19 509.714 131.05C510.04 130.887 510.379 130.805 510.729 130.805ZM534.128 102.105V114.005H550.158V122.755H534.128V134.9H555.058V144H522.228V93.005H555.058V102.105H534.128Z" fill="#002B2B"></path></svg> 