<?xml version="1.0" encoding="UTF-8"?> <svg xmlns="http://www.w3.org/2000/svg" width="64" height="64" fill="none" viewBox="0 0 64 64"><path fill="#000" d="m18.568 8.272.485-.12-.485.12Zm2.949 11.796.485-.122-.485.122Zm-1.11 3.127.3.4-.3-.4Zm35.32 22.237-.12.485.12-.485Zm-11.795-2.949-.12.485.12-.485Zm-3.127 1.11.4.3-.4-.3Zm-23.848-17.81.3.4-.3-.4Zm18.036 22.274-.172.47.172-.47Zm-19.05-19.05.47-.172-.47.172Zm22.275 18.036.4.3-.4-.3ZM46 57.5C24.185 57.5 6.5 39.815 6.5 18h-1c0 22.367 18.133 40.5 40.5 40.5v-1Zm-34-51h3.658v-1H12v1Zm6.083 1.894 2.949 11.795.97-.243-2.949-11.795-.97.243Zm2.949 11.795a2.5 2.5 0 0 1-.925 2.606l.6.8a3.5 3.5 0 0 0 1.295-3.649l-.97.243ZM15.658 6.5a2.5 2.5 0 0 1 2.425 1.894l.97-.243A3.5 3.5 0 0 0 15.658 5.5v1ZM12 5.5A6.5 6.5 0 0 0 5.5 12h1A5.5 5.5 0 0 1 12 6.5v-1ZM58.5 52v-3.658h-1V52h1Zm-2.651-7.053-11.795-2.949-.243.97 11.795 2.949.243-.97Zm-11.795-2.949a3.5 3.5 0 0 0-3.65 1.296l.8.6a2.5 2.5 0 0 1 2.607-.926l.243-.97ZM58.5 48.342a3.5 3.5 0 0 0-2.651-3.395l-.243.97a2.5 2.5 0 0 1 1.894 2.425h1ZM57.5 52a5.5 5.5 0 0 1-5.5 5.5v1a6.5 6.5 0 0 0 6.5-6.5h-1ZM20.106 22.795l-3.45 2.587.6.8 3.45-2.587-.6-.8Zm15.059 24.792a31.594 31.594 0 0 1-18.752-18.752l-.94.344a32.594 32.594 0 0 0 19.348 19.347l.344-.939Zm5.24-4.294-2.587 3.45.8.6 2.587-3.45-.8-.6ZM46 58.5h6v-1h-6v1ZM6.5 18v-6h-1v6h1Zm28.32 30.526c1.401.513 2.926-.02 3.798-1.183l-.8-.6c-.63.84-1.703 1.192-2.653.844l-.344.94ZM16.658 25.382c-1.162.872-1.696 2.397-1.183 3.797l.939-.344c-.348-.95.003-2.022.844-2.653l-.6-.8Z"></path></svg> 